<svg width="14" height="12" viewBox="0 0 14 12" fill="none" xmlns="http://www.w3.org/2000/svg">
<path d="M0.752441 5.25C0.338228 5.25 0.00244141 5.58579 0.00244141 6C0.00244141 6.41421 0.338228 6.75 0.752441 6.75V5.25ZM13.7828 6.53033C14.0757 6.23744 14.0757 5.76256 13.7828 5.46967L9.0098 0.696699C8.71691 0.403806 8.24203 0.403806 7.94914 0.696699C7.65625 0.989592 7.65625 1.46447 7.94914 1.75736L12.1918 6L7.94914 10.2426C7.65625 10.5355 7.65625 11.0104 7.94914 11.3033C8.24203 11.5962 8.71691 11.5962 9.0098 11.3033L13.7828 6.53033ZM0.752441 6V6.75H13.2524V6V5.25H0.752441V6Z" fill="white"/>
</svg>
