<svg width="15" height="12" viewBox="0 0 15 12" fill="none" xmlns="http://www.w3.org/2000/svg">
<path d="M1.25244 5.25C0.838228 5.25 0.502441 5.58579 0.502441 6C0.502441 6.41421 0.838228 6.75 1.25244 6.75V5.25ZM14.2828 6.53033C14.5757 6.23744 14.5757 5.76256 14.2828 5.46967L9.5098 0.696699C9.21691 0.403806 8.74203 0.403806 8.44914 0.696699C8.15625 0.989592 8.15625 1.46447 8.44914 1.75736L12.6918 6L8.44914 10.2426C8.15625 10.5355 8.15625 11.0104 8.44914 11.3033C8.74203 11.5962 9.21691 11.5962 9.5098 11.3033L14.2828 6.53033ZM1.25244 6V6.75H13.7524V6V5.25H1.25244V6Z" fill="#0E0E0E"/>
</svg>
