<svg width="378" height="81" viewBox="0 0 378 81" fill="none" xmlns="http://www.w3.org/2000/svg">
<path d="M22.4901 0.766771C35.8838 0.766771 46.1924 4.26567 53.4159 11.2635C60.7147 18.2613 64.3641 28.0055 64.3641 40.4963C64.3641 52.987 60.7147 62.6936 53.4159 69.6162C46.1924 76.5387 35.8838 80 22.4901 80H0.255163V0.766771H22.4901ZM22.4901 75.711C34.4541 75.711 43.5588 72.626 49.8041 66.4559C56.0495 60.2105 59.1722 51.5573 59.1722 40.4963C59.1722 29.36 56.0495 20.6691 49.8041 14.4238C43.5588 8.17843 34.4541 5.05575 22.4901 5.05575H5.33422V75.711H22.4901ZM84.8046 0.766771V80H79.7256V0.766771H84.8046ZM168.548 24.1304C166.291 18.186 162.529 13.4456 157.261 9.90906C152.069 6.37254 145.899 4.60428 138.751 4.60428C132.506 4.60428 126.862 6.07156 121.821 9.00613C116.779 11.9407 112.791 16.1168 109.857 21.5345C106.922 26.9521 105.455 33.2727 105.455 40.4963C105.455 47.7198 106.922 54.0404 109.857 59.4581C112.791 64.8757 116.779 69.0518 121.821 71.9864C126.862 74.8457 132.506 76.2754 138.751 76.2754C144.771 76.2754 150.226 74.9209 155.117 72.2121C160.008 69.5033 163.921 65.6658 166.855 60.6996C169.79 55.6582 171.407 49.789 171.708 43.0922H136.381V38.8032H176.9V42.1893C176.675 49.5633 174.906 56.1849 171.596 62.054C168.285 67.9231 163.77 72.5131 158.051 75.8239C152.333 79.1347 145.899 80.7901 138.751 80.7901C131.452 80.7901 124.868 79.0971 118.999 75.711C113.13 72.2497 108.54 67.4717 105.229 61.3768C101.919 55.2067 100.263 48.2465 100.263 40.4963C100.263 32.6707 101.919 25.7106 105.229 19.6157C108.54 13.4456 113.13 8.66752 118.999 5.28148C124.868 1.8202 131.452 0.0895662 138.751 0.0895662C147.254 0.0895662 154.59 2.23405 160.76 6.52303C167.006 10.7368 171.558 16.6059 174.417 24.1304H168.548ZM197.342 0.766771V80H192.263V0.766771H197.342ZM259.753 0.766771V5.05575H237.18V80H232.101V5.05575H209.527V0.766771H259.753ZM316.765 59.6838H279.18L271.618 80H266.087L295.207 2.57265H300.85L329.857 80H324.327L316.765 59.6838ZM315.185 55.3948L298.029 9.23186L280.76 55.3948H315.185ZM347.685 75.711H377.144V80H342.606V0.766771H347.685V75.711Z" fill="white"/>
</svg>
