<svg width="289" height="129" viewBox="0 0 289 129" fill="none" xmlns="http://www.w3.org/2000/svg">
<path d="M5.71 72.68V103.59H0V26.5H19.96C28.46 26.5 34.96 28.34 39.46 32.01C43.96 35.68 46.21 41.05 46.21 48.11C46.21 55.17 43.7 61.17 38.68 65.77C33.66 70.38 26.63 72.68 17.6 72.68H5.71ZM5.71 31.39V67.79H17.48C24.94 67.79 30.61 66.13 34.5 62.82C38.38 59.51 40.33 54.82 40.33 48.76C40.33 37.18 33.2 31.4 18.93 31.4H5.71V31.39Z" fill="white"/>
<path d="M106.59 103.59L95.57 81.01C93.3 76.35 91.03 73.22 88.76 71.63C86.49 70.04 83.65 69.24 80.22 69.24H69.95V103.59H64.24V26.5H87.2C94.51 26.5 100.24 28.34 104.42 32.01C108.59 35.68 110.68 40.53 110.68 46.55C110.68 52.11 108.97 56.75 105.55 60.47C102.13 64.2 97.34 66.6 91.19 67.67V67.89C94.46 69.11 97.65 72.82 100.76 79.02L113.05 103.59H106.59ZM69.97 31.39V64.4H84.22C90.53 64.4 95.53 62.86 99.25 59.78C102.96 56.7 104.82 52.47 104.82 47.09C104.82 42.18 103.15 38.34 99.8 35.56C96.45 32.78 91.67 31.39 85.44 31.39H69.98H69.97Z" fill="white"/>
<path d="M129.84 103.59V26.5H135.55V103.59H129.84Z" fill="white"/>
<path d="M281.7 103.59L272.24 79.61H236.36L226.9 103.59H220.61L251.81 26.5H257.23L288.09 103.59H281.69H281.7ZM256.32 39.08C255.9 38 255.55 36.95 255.28 35.91C255.01 35.01 254.72 34.12 254.41 33.22H254.18C253.53 35.59 252.89 37.5 252.28 38.97L238.38 74.72H270.28L256.32 39.08Z" fill="white"/>
<path d="M155.7 34.3099H168.68L186.77 59.1199L216.21 15.7599H230.59L193.14 69.3199L215.75 100.16H204.16L187.46 77.8999L154.77 124.97H141.09L180.74 67.9299L155.7 34.3099Z" fill="white"/>
<path d="M219.46 10.89L217.6 13.9H231.98L233.37 10.89" fill="white"/>
<path d="M223.17 5.78998L221.31 8.79998H235.69L237.08 5.78998" fill="white"/>
<path d="M228.04 0.219971L226.18 3.22997H238.47V0.219971H228.04Z" fill="white"/>
<path d="M141.09 126.13L142.02 128.91H152.22L153.84 126.13H141.09Z" fill="white"/>
</svg>
